<?xml version="1.0" standalone="no"?>
<!DOCTYPE svg PUBLIC "-//W3C//DTD SVG 20010904//EN"
 "http://www.w3.org/TR/2001/REC-SVG-20010904/DTD/svg10.dtd">
<svg version="1.0" xmlns="http://www.w3.org/2000/svg"
 width="2560.000000pt" height="1943.000000pt" viewBox="0 0 2560.000000 1943.000000"
 preserveAspectRatio="xMidYMid meet">

<g transform="translate(0.000000,1943.000000) scale(0.100000,-0.100000)"
fill="#000000" stroke="none">
<path d="M16290 15857 c0 -657 -3 -1998 -7 -2980 l-6 -1787 -2379 0 -2378 0 0
-595 0 -595 2385 0 2385 0 0 590 0 590 1533 0 c844 0 2668 3 4055 7 l2522 6
-2 1186 -3 1186 -1677 3 -1678 2 0 1790 0 1790 -2375 0 -2375 0 0 -1193z"/>
<path d="M13273 7125 c-185 -33 -357 -117 -489 -238 l-54 -49 0 -947 0 -948
-602 -810 -603 -809 -3 1838 -2 1838 -577 -2 -576 -3 -79 -130 c-44 -71 -472
-778 -951 -1569 l-872 -1439 -5 1569 -5 1569 -335 0 c-331 0 -336 0 -445 -27
-60 -15 -240 -57 -400 -93 -159 -36 -378 -85 -485 -110 -107 -24 -305 -69
-440 -100 -135 -30 -255 -57 -267 -60 l-23 -5 0 -225 0 -224 33 -5 c31 -5 883
-86 906 -86 8 0 11 -493 11 -1955 l0 -1955 608 0 607 1 915 1508 915 1508 3
-1508 2 -1509 678 0 677 0 900 1162 c495 639 989 1274 1097 1411 258 325 441
569 556 742 112 169 232 407 267 530 74 258 50 504 -68 715 -55 99 -206 252
-302 307 -180 104 -398 143 -592 108z"/>
<path d="M16900 7134 c-761 -55 -1379 -305 -1844 -745 -422 -400 -670 -913
-741 -1529 -21 -180 -16 -557 10 -720 68 -439 241 -839 506 -1172 89 -112 270
-300 371 -386 449 -380 1057 -543 1886 -503 638 31 1102 152 1810 472 l142 64
0 437 c0 290 -3 438 -10 438 -6 0 -68 -29 -138 -64 -166 -83 -476 -226 -577
-266 -339 -135 -539 -180 -800 -180 -297 0 -517 64 -750 219 -101 67 -279 248
-354 361 -285 428 -392 1044 -295 1699 104 706 479 1160 1079 1310 44 11 91
21 105 23 l25 3 5 -650 5 -649 80 -43 c118 -63 315 -142 424 -170 131 -34 328
-42 460 -19 348 61 589 272 675 591 23 85 31 264 17 366 -34 233 -139 428
-333 615 -259 250 -657 418 -1139 479 -119 15 -505 27 -619 19z"/>
<path d="M1859 7096 c-4 -4 -166 -54 -819 -252 -238 -73 -740 -226 -922 -281
l-118 -36 0 -224 0 -223 395 0 395 0 0 -2725 0 -2724 -37 -10 c-21 -6 -166
-42 -323 -81 -157 -39 -302 -75 -322 -81 l-38 -10 0 -224 0 -225 1560 0 1560
0 0 224 c0 205 -2 225 -17 230 -18 6 -763 176 -769 176 -2 0 -4 349 -4 775 0
765 0 775 20 775 11 0 147 -7 302 -16 518 -29 895 -11 1198 56 755 168 1343
605 1676 1244 200 385 295 801 295 1295 -1 356 -40 628 -132 917 -122 381
-293 671 -543 919 -272 269 -590 429 -951 476 -132 17 -483 6 -605 -19 -292
-61 -593 -198 -1112 -506 l-143 -85 -3 319 -2 320 -268 0 c-148 0 -271 -2
-273 -4z m1298 -1037 c487 -58 831 -386 958 -911 44 -183 56 -292 62 -543 21
-973 -313 -1573 -987 -1777 -151 -45 -265 -59 -532 -65 l-258 -6 0 1625 0
1625 38 6 c20 3 93 15 161 27 211 37 365 42 558 19z"/>
</g>
</svg>
